<?xml version="1.0" encoding="UTF-8"?><svg xmlns="http://www.w3.org/2000/svg" xmlns:xlink="http://www.w3.org/1999/xlink" height="497.2" preserveAspectRatio="xMidYMid meet" version="1.0" viewBox="0.0 0.0 554.2 497.2" width="554.2" zoomAndPan="magnify"><g><g><defs><g id="change1_1"><path d="M226.79,309.89c-15.5,20.23-23.62,44.86-24.36,73.88 l-0.31,12.2l-2.92-11.84c-8.77-35.53-5.14-63.77,10.89-84.7c15.98-20.87,44.23-34.34,84.74-40.42l15.1-2.27l-14.28,5.43 C265.26,273.71,242.31,289.62,226.79,309.89 M173.61,89.44c-34.15-3.63-67.27-17.03-94.95-39.73c20.87,5.31,43.5,7.58,67.9,6.81 c51.21-1.61,117.62-32.51,157.45-2.38c-1.09-0.91-0.85-0.71,0.71,0.6l0.03-0.02c1.59,1.23,3.12,2.53,4.6,3.89 c15.96,14.64,25.63,35.84,34.71,55.77c4.95,10.87,9.73,21.36,15.27,30.31c16.43,26.51,39.08,39.22,90.32,7.48 c21.32-11.67,38.95-18,52.88-18.99c12.44-0.88,21.88,2.54,28.33,10.28c-11.46,1.78-22.94,5.7-34.42,11.76 c-12.34,6.52-24.69,15.53-37.04,27.01c-21.75,16.01-43.3,30.59-64.63,43.75c-21.34,13.16-42.49,24.9-63.46,35.24 c-37.93,15.79-66.52,35.87-85.74,60.25c-19.28,24.45-29.12,53.18-29.54,86.22c-0.06,12.02,1.63,23.92,4.96,35.34 c3.33,11.43,8.31,22.37,14.82,32.47l14,21.71l-11.14-23.31c-8.6-18.01-12.03-37.64-10.45-56.87c1.42-17.29,6.9-34.24,16.3-49.37 c-0.75,22.54,3.7,41.1,13.35,55.69c10.52,15.91,27.18,27.02,49.97,33.33l0.02,0.01c16.08,4.22,32.67,5.41,48.92,3.66 c7.04-0.76,45-7.95,45.61-16.97c-1.96,0.89-3.95,1.69-5.96,2.42c-6.12,2.2-12.47,3.62-18.89,4.26 c-8.39,0.83-16.92,0.32-25.26-1.57c-3.03-2.77-5.9-5.51-8.62-8.24c-24.55-24.63-37.76-48.76-39.62-72.38 c-1.85-23.55,7.59-46.71,28.33-69.49c1.85-2.03,3.78-4.05,5.77-6.04c20.91-15.18,42.26-31.12,64.02-47.82 c21.77-16.69,43.94-34.13,66.51-52.3l0.03-0.03c18.59-15.7,34.77-26.64,48.53-32.81c13.49-6.05,24.58-7.49,33.25-4.3l3.75,1.38 l-1.69-3.62c-4.43-9.46-10.46-17.36-18.08-23.72c-7.61-6.34-16.79-11.12-27.54-14.34l-0.17-0.05l-0.19-0.01 c-7.1-0.48-15.05-2.21-23.82-5.18c-8.82-2.99-18.48-7.24-28.96-12.75l-5.44-2.86l3.28,5.19c3.23,5.1,7.54,10,12.93,14.67 c4.7,4.08,10.24,8,16.61,11.77c-91.11,45.89-110.31,3.34-129.9-40.11c-14.14-31.38-28.49-63.2-68.55-64.69 c-50.88-1.9-100.08,23.04-170.5,16.79C71.51,33.93,35.93,22.57,5.48,3.47L0,0.03l3.17,5.63c13.4,23.81,31.51,44.25,52.93,60.25 c21.41,16,46.14,27.59,72.77,33.7c26.63,6.11,53.93,6.47,80.18,1.4c23.66-4.57,53.52-13.11,69.36-32.37 C245.66,86.44,209.08,93.21,173.61,89.44z M263.67,379.06c-1.51-15.54,2.13-30.68,9.76-43.42c6.82-11.4,16.83-20.9,29.18-27.08 c-11.17,21.33-15.49,44.98-13.25,67.98c2.24,23.01,11.04,45.39,26.11,64.17c-13.31-3.68-24.96-11.07-33.85-20.95 C271.67,408.73,265.18,394.59,263.67,379.06z M210.36,208.98c27.02-6.43,47.35-17.72,65.53-32.38 c16.32-12.08,32.87-27.23,49.65-45.44l12.52-13.59l-12.14,9.2l0,0c-1.91,1.44-3.79,2.86-5.64,4.26 c-40.42,30.19-78.47,49.53-114.13,58.01c-36.43,8.67-70.39,6.01-101.87-7.99l-13.59-6.04l11.95,8.86 C137.18,209.48,173.09,217.85,210.36,208.98z M318.37,91.22c-84.62,46.38-163.31,64.72-252.89,6.79L48.87,87.27l14.61,13.34 C153.81,183.07,232.51,162.89,318.37,91.22z M356.21,465.5c3.28-0.3,6.54-0.9,9.73-1.78l0.8-0.22l0.65,0.51 c15.12,11.85,32.02,18.85,50.69,20.98c18.73,2.14,39.27-0.61,61.61-8.24c-6,13.97-66.11,16-74,15.34 c-22.66-1.89-42.85-9.77-60.54-23.65l-4.34-3.4l5.49,0.47C349.63,465.81,352.94,465.8,356.21,465.5z M277.82,233.26 c-23.91,14.76-50.26,16.96-79.03,6.6l-9.43-3.39l10.02,0.21c22.46,0.47,45.29-6.45,68.48-20.76 c23.31-14.38,46.98-36.23,71.01-65.53l8.56-10.44l-5.81,12.19C322.83,191.56,301.56,218.6,277.82,233.26z" id="a"/></g></defs><clipPath id="b"><use overflow="visible" xlink:actuate="onLoad" xlink:href="#a" xlink:show="embed" xlink:type="simple" xmlns:xlink="http://www.w3.org/1999/xlink"/></clipPath><linearGradient gradientTransform="matrix(1 0 0 -1 0 7477.329)" gradientUnits="userSpaceOnUse" id="c" x1="370.459" x2="215.084" xlink:actuate="onLoad" xlink:show="other" xlink:type="simple" xmlns:xlink="http://www.w3.org/1999/xlink" y1="7459.295" y2="7075.378"><stop offset="0" stop-color="#cb9a36"/><stop offset="1" stop-color="#683200"/></linearGradient><path clip-path="url(#b)" d="M0.03 0H554.26V497.2H0.03z" fill="url(#c)"/></g></g></svg>